HIERARCHY
ROOT Hips
{
	OFFSET 0.000000 8.830580 0.000000
	CHANNELS 6 Xposition Yposition Zposition Zrotation Yrotation Xrotation 
	JOINT Spine
	{
		OFFSET 0.000000 0.010000 0.000000
		CHANNELS 3 Zrotation Yrotation Xrotation
		JOINT Spine1
		{
			OFFSET 0.000000 2.459130 0.000000
			CHANNELS 3 Zrotation Yrotation Xrotation
			JOINT Neck
			{
				OFFSET 0.000000 2.484630 0.000000
				CHANNELS 3 Zrotation Yrotation Xrotation
				JOINT Head_virtual
				{
					OFFSET 0.000000 0.000000 0.000000
					CHANNELS 3 Zrotation Yrotation Xrotation
					JOINT Head
					{
						OFFSET 0.000000 0.927525 0.000000
						CHANNELS 3 Zrotation Yrotation Xrotation
						End Site
						{
							OFFSET 0.000000 0.000000 0.000000
						}
					}
				}
				JOINT LeftUpArm_virtual
				{
					OFFSET 0.000000 0.000000 0.000000
					CHANNELS 3 Zrotation Yrotation Xrotation
					JOINT LeftUpArm
					{
						OFFSET 1.248820 0.000000 0.000000
						CHANNELS 3 Zrotation Yrotation Xrotation
						JOINT LeftForeArm
						{
							OFFSET 2.597580 0.000000 0.000000
							CHANNELS 3 Zrotation Yrotation Xrotation
							JOINT LeftHand
							{
								OFFSET 2.455420 0.000000 0.000000
								CHANNELS 3 Zrotation Yrotation Xrotation
								End Site
								{
									OFFSET 0.000000 0.000000 0.000000
								}
							}
						}
					}
				}
				JOINT RightUpArm_virtual
				{
					OFFSET -0.000000 -0.000000 -0.000000
					CHANNELS 3 Zrotation Yrotation Xrotation
					JOINT RightUpArm
					{
						OFFSET -1.248820 -0.000000 -0.000000
						CHANNELS 3 Zrotation Yrotation Xrotation
						JOINT RightForeArm
						{
							OFFSET -2.597580 -0.000000 -0.000000
							CHANNELS 3 Zrotation Yrotation Xrotation
							JOINT RightHand
							{
								OFFSET -2.455420 -0.000000 -0.000000
								CHANNELS 3 Zrotation Yrotation Xrotation
								End Site
								{
									OFFSET 0.000000 0.000000 0.000000
								}
							}
						}
					}
				}
			}
		}
	}
	JOINT LeftUpLeg
	{
		OFFSET 1.271939 0.000000 0.000000
		CHANNELS 3 Zrotation Yrotation Xrotation
		JOINT LeftLowLeg
		{
			OFFSET 0.000000 -4.342910 0.000000
			CHANNELS 3 Zrotation Yrotation Xrotation
			JOINT LeftFoot
			{
				OFFSET 0.000000 -4.487670 0.000000
				CHANNELS 3 Zrotation Yrotation Xrotation
				JOINT LeftToeBase
				{
					OFFSET 0.000000 0.000000 1.515070
					CHANNELS 3 Zrotation Yrotation Xrotation
					End Site
					{
						OFFSET 0.000000 0.000000 0.000000
					}
				}
			}
		}
	}
	JOINT RightUpLeg
	{
		OFFSET -1.271939 0.000000 0.000000
		CHANNELS 3 Zrotation Yrotation Xrotation
		JOINT RightLowLeg
		{
			OFFSET 0.000000 -4.342910 0.000000
			CHANNELS 3 Zrotation Yrotation Xrotation
			JOINT RightFoot
			{
				OFFSET 0.000000 -4.487670 0.000000
				CHANNELS 3 Zrotation Yrotation Xrotation
				JOINT RightToeBase
				{
					OFFSET 0.000000 0.000000 1.515070
					CHANNELS 3 Zrotation Yrotation Xrotation
					End Site
					{
						OFFSET 0.000000 0.000000 0.000000
					}
				}
			}
		}
	}
}
MOTION
Frames: 7
Frame Time: 0.041667
-22.521651 8.856257 56.435791 -29.130167 74.531836 -23.776582 -5.033924 -5.079870 -5.433887 11.907815 -2.726252 -3.517466 0.000000 0.000000 0.000000 -5.611473 2.844323 11.788998 18.169660 17.061467 -93.401257 -29.436001 8.632430 7.669790 -43.589298 2.731240 37.691101 0.000000 -53.394100 0.000000 17.679899 14.984900 20.287901 26.697800 -7.781130 7.842710 37.949699 -4.387070 23.996901 0.000000 59.144100 0.000000 9.205520 -2.534820 7.690440 -2.305080 -13.431998 2.986359 0.000000 0.000000 6.763740 -3.369170 3.466429 0.915174 0.000000 0.000000 -33.022100 4.987089 5.444764 -24.276441 0.000000 0.000000 31.256500 7.978242 -9.669216 7.157217 0.000000 0.000000 -41.738001 
-22.401483 8.848067 56.458442 -35.408242 76.862064 -29.670569 -4.873123 -5.076758 -5.396312 11.710940 -2.763264 -3.386282 0.000000 0.000000 0.000000 -5.007727 2.126329 10.827519 18.420869 17.301960 -93.969092 -29.469299 8.584140 7.621090 -43.355099 2.953860 37.804199 0.000000 -53.713402 0.000000 19.122299 15.352500 21.076700 26.733400 -7.548990 8.331770 37.974400 -4.113730 23.708599 0.000000 59.136600 0.000000 8.548010 -2.804360 6.831380 -1.936447 -14.539217 3.290020 0.000000 0.000000 6.758870 -4.008779 2.180373 0.594030 0.000000 0.000000 -32.379000 5.034009 5.862081 -24.414533 0.000000 0.000000 25.922800 8.443893 -10.485356 7.825320 0.000000 0.000000 -40.975401 
-22.280192 8.839074 56.474303 -42.983783 78.867797 -37.193582 -4.831067 -4.925199 -5.107980 11.660192 -2.649579 -3.129069 0.000000 0.000000 0.000000 -4.451831 1.328979 9.845611 18.471012 17.488180 -94.607107 -29.669100 8.418580 7.498210 -42.915001 3.247290 37.628399 0.000000 -54.025398 0.000000 18.676201 15.228600 21.095400 26.675600 -7.262490 8.519420 37.917301 -4.044530 23.549700 0.000000 59.128502 0.000000 8.199110 -2.952200 6.206260 -1.793609 -15.476403 3.819612 0.000000 0.000000 6.961340 -4.110163 1.136758 0.262952 0.000000 0.000000 -32.358299 4.923243 6.396855 -24.427016 0.000000 0.000000 21.169201 9.377332 -11.020748 8.633042 0.000000 0.000000 -40.188801 
-22.157895 8.826796 56.486637 -52.639626 80.624692 -46.563833 -4.902785 -4.689550 -5.089673 11.800267 -2.446146 -2.796891 0.000000 0.000000 0.000000 -4.218452 0.689148 8.596711 18.922761 17.324662 -95.019780 -30.060699 8.076030 7.434120 -42.573002 3.519940 37.391899 0.000000 -54.181702 0.000000 19.356501 15.041000 21.337799 26.387199 -7.086560 8.679090 37.990200 -3.913160 23.478701 0.000000 59.092800 0.000000 7.797160 -3.031010 5.200520 -1.686076 -16.245322 4.011057 0.000000 0.000000 7.334730 -4.088115 0.002702 -0.109500 0.000000 0.000000 -32.383801 4.715760 6.636870 -24.781640 0.000000 0.000000 17.024300 9.389171 -10.663244 9.394010 0.000000 0.000000 -39.998699 
-22.032493 8.813231 56.518933 -64.572385 81.959202 -58.269052 -5.301273 -4.599740 -5.022156 12.092410 -2.346667 -2.477589 0.000000 0.000000 0.000000 -4.044979 0.214291 7.315125 19.209824 17.148931 -95.256867 -30.207800 8.155150 7.408590 -42.370899 3.571430 36.945900 0.000000 -54.259201 0.000000 19.910700 14.949500 21.656900 26.248899 -6.720960 9.047590 37.899799 -3.809680 23.871000 0.000000 59.330799 0.000000 6.655640 -3.159010 4.698490 -1.444917 -16.562191 4.281956 0.000000 0.000000 7.691730 -4.119118 -1.469451 -0.554983 0.000000 0.000000 -32.125900 4.592460 7.096965 -25.102784 0.000000 0.000000 13.378300 9.284314 -10.349214 9.431385 0.000000 0.000000 -39.649700 
-21.898483 8.795953 56.532069 -79.423104 82.977421 -72.742184 -5.420274 -4.448627 -5.244013 12.000265 -2.230026 -2.097799 0.000000 0.000000 0.000000 -3.733751 -0.524520 6.202139 19.096551 16.987000 -95.570084 -30.456301 8.093990 7.285900 -42.110802 3.700340 36.370701 0.000000 -54.265202 0.000000 19.781700 14.691600 21.796400 26.014000 -6.426270 9.391390 38.125198 -3.614830 23.875500 0.000000 59.271900 0.000000 6.138550 -3.233550 4.042470 -1.491647 -17.076855 4.340289 0.000000 0.000000 8.247580 -3.991879 -2.419077 -0.950947 0.000000 0.000000 -31.342501 4.259249 6.951619 -25.460580 0.000000 0.000000 10.075300 10.249989 -8.574576 8.899467 0.000000 0.000000 -39.455999 
-21.758946 8.775676 56.544388 -96.374574 83.426271 -89.363713 -5.402594 -4.191334 -5.562123 11.698475 -2.034728 -1.629598 0.000000 0.000000 0.000000 -3.366993 -1.596596 5.407084 18.491723 16.847927 -96.201410 -30.584600 7.854720 7.454100 -41.877998 3.691770 35.557301 0.000000 -54.223400 0.000000 19.403900 14.186900 22.596001 25.935301 -6.319020 9.726890 38.296700 -3.355460 23.966801 0.000000 59.348301 0.000000 4.995840 -3.475750 3.793870 -1.553006 -17.167848 4.422955 0.000000 0.000000 8.953110 -4.074257 -3.541177 -1.365106 0.000000 0.000000 -31.367300 3.866685 6.945500 -25.755683 0.000000 0.000000 7.263390 11.125757 -6.871479 8.322963 0.000000 0.000000 -39.311701 
